<svg width="1356" height="289" viewBox="0 0 1356 289" fill="none" xmlns="http://www.w3.org/2000/svg">
<g clip-path="url(#clip0_424_2)">
<path d="M157.674 289C156.363 289 156.363 289 155.052 289C148.496 287.687 143.251 281.124 144.562 273.247L197.011 10.7042C198.322 4.14065 204.878 -1.11021 212.746 0.202501C219.302 1.51522 224.547 8.07879 223.236 15.9551L170.787 278.498C169.475 285.062 164.231 289 157.674 289ZM262.572 262.746C259.95 262.746 256.016 261.433 253.394 260.12C248.149 254.869 246.838 246.993 252.082 241.742L336.001 145.914L252.082 50.0857C246.838 44.8348 248.149 36.9585 253.394 31.7077C258.639 26.4568 266.506 27.7695 271.751 33.0204L363.536 138.038C367.47 143.289 367.47 149.852 363.536 155.103L271.751 260.12C270.44 261.433 266.506 262.746 262.572 262.746ZM105.226 262.746C101.292 262.746 97.3582 261.433 94.7358 258.808L2.95025 153.79C-0.983416 148.539 -0.983416 141.976 2.95025 136.725L94.7358 31.7077C99.9807 26.4568 107.848 25.1441 113.093 30.395C118.338 35.6458 119.649 43.5221 114.404 48.773L30.4859 144.601L114.404 240.43C119.649 245.68 118.338 253.557 113.093 258.808C111.782 261.433 107.848 262.746 105.226 262.746Z" fill="#7295FF"/>
<path d="M578.069 265.976V25.6833H568.018L508.927 135.767L469.634 62.5811L460.801 67.4602L508.927 156.808L568.322 45.8094V265.976H578.069ZM449.531 265.976V46.4193L451.968 50.9934L460.801 46.4193L449.531 25.6833H439.784V265.976H449.531ZM724.274 265.976C757.984 265.976 786.716 254.084 810.474 230.298C822.252 218.711 831.136 206.208 837.126 192.791C843.116 179.373 846.111 164.126 846.111 147.05C846.111 113.101 834.232 84.4362 810.474 61.0564C786.716 37.881 757.374 26.1926 722.447 25.9883C700.923 26.1917 680.717 31.5791 661.833 42.1501C643.354 52.9246 628.632 67.8673 617.667 86.9763L626.5 91.8554C636.45 74.1689 649.953 60.4465 667.011 50.6885C683.865 40.9304 702.344 35.9498 722.447 35.7464C754.938 35.9498 781.943 46.8261 803.468 68.375C824.992 89.518 835.856 115.741 836.06 147.05C836.06 162.704 833.319 176.679 827.836 188.979C822.353 201.279 814.332 212.815 803.773 223.59C782.045 245.342 755.547 256.218 724.274 256.218C704.78 256.218 687.114 252.051 671.275 243.716L666.706 252.559C683.966 261.504 703.157 265.976 724.274 265.976ZM974.954 29.6476L974.954 25.6833H885.708V35.4414H937.185V265.976H947.845V35.4414H975.259C974.853 32.1886 974.751 30.2575 974.954 29.6476ZM982.874 25.6833V35.4414H999.626V25.6833H982.874ZM1128.47 29.6476L1128.47 25.6833H1039.22V35.4414H1090.7V265.976H1101.36V35.4414H1128.77C1128.37 32.1886 1128.27 30.2575 1128.47 29.6476ZM1136.39 25.6833V35.4414H1153.14V25.6833H1136.39ZM1274.06 54.6527C1274.06 55.8724 1277.67 67.5111 1284.88 89.5683C1292.09 111.626 1299.96 135.767 1308.48 161.992C1317.01 188.217 1328.49 222.879 1342.9 265.976H1356L1275.28 25.6833H1272.85L1192.74 265.976H1205.23L1274.06 54.6527ZM1268.58 197.67H1257.62L1275.89 265.976H1286.86L1268.58 197.67Z" fill="#22313F"/>
</g>
<defs>
<clipPath id="clip0_424_2">
<rect width="1356" height="289" fill="white"/>
</clipPath>
</defs>
</svg>
